<svg width="89" height="89" viewBox="0 0 89 89" fill="none" xmlns="http://www.w3.org/2000/svg">
<path d="M0.976483 86.9232C0.976483 87.6109 1.66417 88.1611 2.35185 88.1611C3.17707 88.1611 3.72722 87.4734 3.72722 86.6482V84.9977H16.9308C17.4809 86.9232 19.2689 88.2986 21.3319 88.2986C23.5325 88.2986 25.3205 86.7857 25.7331 84.7227H29.1715C29.3091 85.9605 29.1715 86.6482 29.1715 86.6482C29.1715 87.4734 29.7217 88.0235 30.4094 88.0235C31.2346 88.0235 31.7847 87.4734 31.7847 86.7857V84.7227H83.4986C86.5244 84.7227 89 82.247 89 79.2212V14.5789C89 11.5531 86.5244 9.07743 83.4986 9.07743H72.4956V6.18916C72.4956 5.36393 71.9455 4.81379 71.1203 4.81379H63.2807C62.593 2.06305 60.1173 0 57.229 0C54.3408 0 51.7276 2.06305 51.1774 4.81379H44.163C43.3378 4.81379 42.7877 5.36393 42.7877 6.18916V9.21496H31.7847C28.7589 9.21496 26.2833 11.6906 26.2833 14.7164V21.3182C26.2833 22.1434 26.8334 22.6936 27.6586 22.6936C28.4838 22.6936 29.034 22.1434 29.034 21.3182V14.7164C29.034 13.2035 30.2718 11.9657 31.7847 11.9657H42.7877V15.2666C42.7877 16.0918 43.3378 16.642 44.163 16.642H71.1203C71.9455 16.642 72.4956 16.0918 72.4956 15.2666V11.9657H83.4986C85.0115 11.9657 86.2493 13.2035 86.2493 14.7164V79.3587C86.2493 80.8716 85.0115 82.1095 83.4986 82.1095H31.7847C30.9595 76.1954 28.2088 65.7426 18.5812 56.9402C32.7475 43.8742 32.0598 27.6449 32.0598 26.9572C32.0598 26.132 31.3721 25.5818 30.6844 25.7194C29.8592 25.7194 29.3091 26.4071 29.4466 27.0947V28.7452H16.5181C15.968 27.0947 14.4551 25.9945 12.6671 25.9945C10.8791 25.9945 9.36623 27.2323 8.81608 28.7452H3.72722V27.0947C3.72722 26.2695 3.17707 25.7194 2.48939 25.7194C1.8017 25.7194 1.11402 26.2695 1.11402 26.9572C1.11402 27.6449 0.426335 44.0118 14.5926 56.9402C0.288799 69.8687 0.976483 86.2356 0.976483 86.9232ZM69.7449 13.8912H45.4009V7.56452H52.2777C53.1029 7.56452 53.6531 7.01438 53.6531 6.18916C53.6531 4.26364 55.166 2.75074 57.0915 2.75074C59.017 2.75074 60.5299 4.26364 60.5299 6.18916C60.5299 7.01438 61.0801 7.56452 61.9053 7.56452H69.7449V13.8912ZM21.3319 85.5479C20.3692 85.5479 19.4064 84.7227 19.4064 83.6224C19.4064 82.5221 20.2316 81.6968 21.3319 81.6968C22.4322 81.6968 23.2574 82.5221 23.2574 83.6224C23.2574 84.7227 22.4322 85.5479 21.3319 85.5479ZM28.8965 82.1095H25.7331C25.0454 80.3215 23.395 79.0837 21.4695 79.0837C19.4064 79.0837 17.6184 80.459 17.0683 82.3845H4.00229C4.27737 80.5966 4.68998 78.396 5.37766 76.0578H27.5211C28.3463 78.2584 28.7589 80.459 28.8965 82.1095ZM26.5583 73.3071H6.47795C7.30318 71.2441 8.40347 69.181 9.6413 66.9804H23.395C24.7703 69.0435 25.7331 71.2441 26.5583 73.3071ZM12.392 28.6077C13.2173 28.6077 13.7674 29.2953 13.7674 29.983C13.7674 30.6707 13.0797 31.3584 12.392 31.3584C11.7044 31.3584 11.0167 30.6707 11.0167 29.983C11.0167 29.2953 11.5668 28.6077 12.392 28.6077ZM4.00229 31.3584H8.40347C8.95362 33.0088 10.4665 34.1091 12.2545 34.1091C14.0425 34.1091 15.5554 32.8713 16.1055 31.3584H28.7589C28.4838 33.1464 28.0712 35.347 27.3835 37.6851H5.5152C4.68998 35.347 4.27737 33.1464 4.00229 31.3584ZM6.47795 40.4358H26.6959C25.8706 42.4989 24.9079 44.5619 23.5325 46.7625H9.77884C8.26593 44.6995 7.30318 42.4989 6.47795 40.4358ZM11.5668 49.6508H21.4695C20.0941 51.4388 18.4437 53.3643 16.5181 55.1522C14.5926 53.2267 12.9422 51.4388 11.5668 49.6508ZM16.5181 58.7282C18.4437 60.5162 20.0941 62.3042 21.4695 64.2297H11.5668C12.9422 62.3042 14.5926 60.5162 16.5181 58.7282Z" fill="#45534E"/>
<path d="M44.9882 49.3757C49.6645 49.3757 53.5155 45.5246 53.5155 40.8484C53.5155 36.5848 46.9137 26.6821 46.2261 25.5818C45.6759 24.7566 44.4381 24.7566 43.8879 25.5818C43.2002 26.6821 36.5985 36.5848 36.5985 40.8484C36.5985 45.5246 40.312 49.3757 44.9882 49.3757ZM44.9882 28.8827C47.6014 32.8713 50.7648 38.6478 50.7648 40.8484C50.7648 44.0117 48.1516 46.6249 44.9882 46.6249C41.8249 46.6249 39.2117 44.0117 39.2117 40.8484C39.3492 38.6478 42.5126 33.0088 44.9882 28.8827ZM79.6475 29.8454H55.8536C55.0284 29.8454 54.4783 30.3956 54.4783 31.2208C54.4783 32.046 55.0284 32.5962 55.8536 32.5962H79.6475C80.4727 32.5962 81.0229 32.046 81.0229 31.2208C81.0229 30.3956 80.4727 29.8454 79.6475 29.8454ZM79.6475 41.8111H59.9797C59.1545 41.8111 58.6044 42.3613 58.6044 43.1865C58.6044 44.0117 59.1545 44.5619 59.9797 44.5619H79.6475C80.4727 44.5619 81.0229 44.0117 81.0229 43.1865C81.0229 42.3613 80.4727 41.8111 79.6475 41.8111ZM76.6217 68.2182H40.9997C38.524 68.2182 36.5985 70.1437 36.5985 72.6194C36.5985 75.0951 38.524 77.0206 40.9997 77.0206H76.6217C79.0973 77.0206 81.0229 75.0951 81.0229 72.6194C81.0229 70.1437 79.0973 68.2182 76.6217 68.2182ZM76.6217 74.2698H40.9997C40.0369 74.2698 39.3492 73.5822 39.3492 72.6194C39.3492 71.6566 40.0369 70.969 40.9997 70.969H76.6217C77.5844 70.969 78.2721 71.6566 78.2721 72.6194C78.2721 73.5822 77.5844 74.2698 76.6217 74.2698ZM37.9738 62.8543H44.5756C44.9882 62.8543 45.2633 62.7167 45.5384 62.4417L52.0026 55.9774L58.3293 62.4417C58.6044 62.7167 58.8794 62.8543 59.292 62.8543H63.8308C64.2434 62.8543 64.5184 62.7167 64.7935 62.4417L68.9196 58.3156L73.0457 62.4417C73.3208 62.7167 73.5959 62.8543 74.0085 62.8543H79.6475C80.4727 62.8543 81.0229 62.3041 81.0229 61.4789C81.0229 60.6537 80.4727 60.1035 79.6475 60.1035H74.5586L69.8824 55.2898C69.6073 55.0147 69.3322 54.8771 68.9196 54.8771C68.507 54.8771 68.2319 55.0147 67.9569 55.2898L63.1431 60.1035H59.7047L52.8278 53.0892C52.5527 52.8141 52.2777 52.6766 51.8651 52.6766C51.4524 52.6766 51.1774 52.8141 50.9023 53.0892L43.8879 60.1035H37.8363C37.0111 60.1035 36.4609 60.6537 36.4609 61.4789C36.4609 62.3041 37.1486 62.8543 37.9738 62.8543Z" fill="#019867"/>
</svg>
