<svg width="74" height="89" viewBox="0 0 74 89" fill="none" xmlns="http://www.w3.org/2000/svg">
<path d="M73.9806 64.7747V1.84228C73.9806 1.35368 73.7865 0.885087 73.441 0.539592C73.0955 0.194097 72.6269 0 72.1383 0H13.7969C6.61567 0 0.771952 5.68344 0.771952 12.6749L0.755371 75.7491C0.755371 82.4845 6.48118 88.424 14.0567 88.424H72.1586C72.48 88.4236 72.7957 88.3391 73.0744 88.179C73.3531 88.0189 73.5852 87.7888 73.7475 87.5114C73.9099 87.234 73.9969 86.9189 74 86.5975C74.003 86.2761 73.922 85.9595 73.765 85.679C72.0593 82.6509 71.163 79.2341 71.1627 75.7586C71.1623 72.2831 72.058 68.8661 73.7632 65.8376C73.9418 65.5136 74.0176 65.1428 73.9806 64.7747ZM70.296 63.0945H18.6071V3.68088H70.296V63.0945ZM4.45836 12.6712C4.45836 7.71548 8.64771 3.68088 13.7987 3.68088H14.9225V63.0945H14.0567C10.3279 63.0945 6.85701 64.5904 4.45836 66.9633V12.6712ZM69.2349 84.7413H14.0567C1.56597 84.7413 1.26568 66.7791 14.0567 66.7791H69.2349C66.8909 72.5371 66.8909 78.9833 69.2349 84.7413Z" fill="#45534E"/>
<path d="M14.0547 74.1485H62.1567C62.6453 74.1485 63.1139 73.9544 63.4594 73.6089C63.8049 73.2634 63.999 72.7948 63.999 72.3062C63.999 71.8176 63.8049 71.3491 63.4594 71.0036C63.1139 70.6581 62.6453 70.464 62.1567 70.464H14.0547C6.21393 70.464 6.12734 81.0552 14.0547 81.0552H62.1567C62.6453 81.0552 63.1139 80.8611 63.4594 80.5157C63.8049 80.1702 63.999 79.7016 63.999 79.213C63.999 78.7244 63.8049 78.2558 63.4594 77.9103C63.1139 77.5648 62.6453 77.3707 62.1567 77.3707H14.0547C10.886 77.3707 11.2563 74.1485 14.0547 74.1485ZM43.8039 55.991C55.8727 55.991 65.6902 46.1716 65.6902 34.1065C65.6902 22.0396 55.8727 12.2202 43.8039 12.2202C31.7295 12.2202 21.9065 22.0396 21.9065 34.1065C21.9065 46.1735 31.7295 55.991 43.8039 55.991ZM43.8039 15.9048C53.8425 15.9048 62.0056 24.0698 62.0056 34.1065C62.0056 44.1414 53.8425 52.3064 43.8039 52.3064C33.7634 52.3064 25.5911 44.1414 25.5911 34.1065C25.5911 24.0698 33.7616 15.9048 43.8039 15.9048Z" fill="#019867"/>
<path d="M30.7644 32.4146L33.6973 34.1095L30.7681 35.7934C30.2062 36.1176 29.8064 36.6408 29.6388 37.2654C29.4711 37.8899 29.5596 38.5439 29.882 39.0984L32.5091 43.6489C32.6676 43.9241 32.8789 44.1653 33.1308 44.3588C33.3827 44.5523 33.6702 44.6943 33.977 44.7766C34.2838 44.8589 34.6038 44.8799 34.9187 44.8384C35.2336 44.797 35.5372 44.6939 35.8123 44.535L38.7489 42.8401V46.2336C38.7489 47.5674 39.834 48.6525 41.1678 48.6525H46.4293C47.7631 48.6525 48.8483 47.5656 48.8483 46.2336V42.8401L51.783 44.5387C52.3387 44.8575 52.9979 44.9432 53.6166 44.7772C54.2353 44.6111 54.7631 44.2067 55.0844 43.6526L57.7115 39.104C58.0376 38.5439 58.126 37.8917 57.9583 37.2654C57.877 36.9574 57.7353 36.6687 57.5414 36.4161C57.3475 36.1634 57.1054 35.9517 56.829 35.7934L53.8998 34.1095L56.8346 32.4146C57.3928 32.0886 57.7925 31.5672 57.9583 30.9427C58.1241 30.3181 58.0376 29.6678 57.7152 29.1133L55.0825 24.5573C54.9243 24.2818 54.7128 24.0406 54.4604 23.8477C54.208 23.6548 53.9197 23.514 53.6124 23.4335C53.3064 23.35 52.9869 23.3283 52.6725 23.3698C52.358 23.4112 52.055 23.5149 51.7812 23.6749L48.8483 25.3698V21.9763C48.8483 20.6443 47.7613 19.561 46.4293 19.561H41.1678C39.834 19.561 38.7489 20.6443 38.7489 21.9763V25.3716L35.8215 23.6804C35.5476 23.5196 35.2446 23.4147 34.93 23.3717C34.6154 23.3287 34.2954 23.3485 33.9884 23.4298C33.362 23.5956 32.837 23.9954 32.5109 24.5591L29.8764 29.1151C29.2132 30.2721 29.613 31.7496 30.7644 32.4146ZM35.068 27.4994L39.67 30.1597C39.9501 30.3214 40.2677 30.4065 40.5911 30.4065C40.9145 30.4065 41.2322 30.3214 41.5123 30.1597C41.7923 29.998 42.0249 29.7654 42.1866 29.4854C42.3483 29.2053 42.4334 28.8877 42.4334 28.5643V23.2456H45.1637V28.5624C45.1634 28.886 45.2483 29.2039 45.4098 29.4842C45.5714 29.7645 45.8039 29.9973 46.0841 30.1592C46.3642 30.3211 46.682 30.4064 47.0055 30.4065C47.3291 30.4066 47.6469 30.3215 47.9271 30.1597L52.5291 27.4994L53.8906 29.8576L49.2904 32.5178C49.0113 32.6805 48.7798 32.9135 48.6189 33.1936C48.4579 33.4737 48.3732 33.7911 48.3732 34.1141C48.3732 34.4372 48.4579 34.7546 48.6189 35.0347C48.7798 35.3148 49.0113 35.5478 49.2904 35.7105L53.8887 38.356L52.5291 40.7141L47.929 38.0539C47.6489 37.8924 47.3313 37.8074 47.008 37.8073C46.6847 37.8073 46.3671 37.8922 46.087 38.0537C45.8069 38.2151 45.5742 38.4473 45.4121 38.727C45.2501 39.0067 45.1644 39.3242 45.1637 39.6474V44.968H42.4334V39.6474C42.4334 39.3241 42.3483 39.0064 42.1866 38.7263C42.0249 38.4463 41.7923 38.2137 41.5123 38.052C41.2322 37.8903 40.9145 37.8052 40.5911 37.8052C40.2677 37.8052 39.9501 37.8903 39.67 38.052L35.068 40.7104L33.7084 38.3523L38.3049 35.7086C38.5853 35.5471 38.8183 35.3144 38.9803 35.0342C39.1422 34.754 39.2275 34.436 39.2275 34.1123C39.2275 33.7886 39.1422 33.4706 38.9803 33.1904C38.8183 32.9102 38.5853 32.6775 38.3049 32.516L33.7047 29.8557L35.068 27.4994Z" fill="#45534E"/>
</svg>
