<svg width="88" height="89" viewBox="0 0 88 89" fill="none" xmlns="http://www.w3.org/2000/svg">
<path d="M17.4781 28.2472H11.6878C9.788 28.2472 8.24194 29.7927 8.24194 31.693V36.8125C8.24194 38.7123 9.788 40.2584 11.6878 40.2584H17.4781C19.3778 40.2584 20.9239 38.7123 20.9239 36.8125V31.693C20.9238 29.7925 19.3777 28.2472 17.4781 28.2472ZM18.1596 36.8124C18.1593 36.9931 18.0874 37.1662 17.9597 37.294C17.8319 37.4217 17.6587 37.4936 17.4781 37.494H11.6878C11.5071 37.4936 11.3339 37.4217 11.2062 37.294C11.0784 37.1662 11.0065 36.9931 11.0062 36.8124V31.6929C11.0063 31.5122 11.0781 31.3388 11.2059 31.211C11.3337 31.0832 11.507 31.0114 11.6878 31.0113H17.4781C17.6588 31.0114 17.8321 31.0832 17.9599 31.211C18.0877 31.3388 18.1596 31.5122 18.1596 31.6929V36.8124ZM34.2042 28.2472H28.4139C26.5141 28.2472 24.9681 29.7927 24.9681 31.693V36.8125C24.9681 38.7123 26.5141 40.2584 28.4139 40.2584H34.2042C36.104 40.2584 37.65 38.7123 37.65 36.8125V31.693C37.65 29.7925 36.104 28.2472 34.2042 28.2472ZM34.8859 36.8124C34.8856 36.9931 34.8137 37.1662 34.686 37.294C34.5582 37.4217 34.385 37.4936 34.2044 37.494H28.414C28.2334 37.4936 28.0602 37.4217 27.9324 37.294C27.8047 37.1662 27.7328 36.9931 27.7325 36.8124V31.6929C27.7326 31.5122 27.8044 31.3388 27.9322 31.211C28.06 31.0832 28.2333 31.0114 28.414 31.0113H34.2044C34.3851 31.0114 34.5584 31.0832 34.6862 31.211C34.814 31.3388 34.8858 31.5122 34.8859 31.6929V36.8124ZM45.1403 40.2582H50.9306C52.8304 40.2582 54.3765 38.7122 54.3765 36.8124V31.6929C54.3765 29.7925 52.8304 28.2471 50.9306 28.2471H45.1403C43.2406 28.2471 41.6945 29.7925 41.6945 31.6929V36.8124C41.6945 38.7122 43.2406 40.2582 45.1403 40.2582ZM44.4586 31.693C44.4587 31.5123 44.5305 31.339 44.6583 31.2112C44.7861 31.0834 44.9594 31.0116 45.1402 31.0115H50.9305C51.1112 31.0116 51.2845 31.0834 51.4123 31.2112C51.5401 31.339 51.612 31.5123 51.6121 31.693V36.8125C51.6117 36.9932 51.5398 37.1664 51.4121 37.2941C51.2843 37.4219 51.1112 37.4938 50.9305 37.4941H45.1402C44.9595 37.4938 44.7863 37.4219 44.6586 37.2941C44.5308 37.1664 44.4589 36.9932 44.4586 36.8125V31.693ZM61.8666 40.2582H67.6569C69.5567 40.2582 71.1027 38.7122 71.1027 36.8124V31.6929C71.1027 29.7925 69.5567 28.2471 67.6569 28.2471H61.8666C59.9668 28.2471 58.4208 29.7925 58.4208 31.6929V36.8124C58.4208 38.7122 59.9668 40.2582 61.8666 40.2582ZM61.1849 31.693C61.185 31.5123 61.2568 31.339 61.3846 31.2112C61.5124 31.0834 61.6857 31.0116 61.8665 31.0115H67.6568C67.8375 31.0116 68.0108 31.0834 68.1386 31.2112C68.2664 31.339 68.3383 31.5123 68.3383 31.693V36.8125C68.338 36.9932 68.2661 37.1664 68.1384 37.2941C68.0106 37.4219 67.8374 37.4938 67.6568 37.4941H61.8665C61.6858 37.4938 61.5126 37.4219 61.3849 37.2941C61.2571 37.1664 61.1852 36.9932 61.1849 36.8125V31.693ZM17.4781 43.5873H11.6878C9.788 43.5873 8.24194 45.1334 8.24194 47.0338V52.1526C8.24194 54.0524 9.788 55.5992 11.6878 55.5992H17.4781C19.3778 55.5992 20.9239 54.0524 20.9239 52.1526V47.0338C20.9238 45.1334 19.3777 43.5873 17.4781 43.5873ZM18.1596 52.1526C18.1595 52.3334 18.0877 52.5067 17.9599 52.6346C17.8321 52.7625 17.6589 52.8346 17.4781 52.8349H11.6878C11.507 52.8346 11.3337 52.7625 11.206 52.6346C11.0782 52.5067 11.0064 52.3334 11.0062 52.1526V47.0338C11.0062 46.853 11.078 46.6796 11.2058 46.5517C11.3336 46.4238 11.5069 46.3518 11.6878 46.3516H17.4781C17.6589 46.3518 17.8322 46.4238 17.96 46.5517C18.0878 46.6796 18.1596 46.853 18.1596 47.0338V52.1526ZM34.2042 43.5873H28.4139C26.5141 43.5873 24.9681 45.1334 24.9681 47.0338V52.1526C24.9681 54.0524 26.5141 55.5992 28.4139 55.5992H34.2042C36.104 55.5992 37.65 54.0524 37.65 52.1526V47.0338C37.65 45.1334 36.104 43.5873 34.2042 43.5873ZM34.8859 52.1526C34.8858 52.3334 34.8139 52.5067 34.6862 52.6346C34.5584 52.7625 34.3851 52.8346 34.2044 52.8349H28.414C28.2333 52.8346 28.06 52.7625 27.9322 52.6346C27.8045 52.5067 27.7326 52.3334 27.7325 52.1526V47.0338C27.7325 46.853 27.8043 46.6796 27.9321 46.5517C28.0599 46.4238 28.2332 46.3518 28.414 46.3516H34.2044C34.3852 46.3518 34.5585 46.4238 34.6863 46.5517C34.8141 46.6796 34.8859 46.853 34.8859 47.0338V52.1526ZM45.1403 55.599H50.9306C52.8304 55.599 54.3765 54.0522 54.3765 52.1525V47.0337C54.3765 45.1334 52.8304 43.5872 50.9306 43.5872H45.1403C43.2406 43.5872 41.6945 45.1332 41.6945 47.0337V52.1525C41.6945 54.0522 43.2406 55.599 45.1403 55.599ZM44.4586 47.0338C44.4587 46.853 44.5305 46.6796 44.6582 46.5517C44.786 46.4238 44.9594 46.3518 45.1402 46.3516H50.9305C51.1113 46.3518 51.2846 46.4238 51.4124 46.5517C51.5402 46.6796 51.612 46.853 51.6121 47.0338V52.1526C51.6119 52.3334 51.5401 52.5067 51.4123 52.6346C51.2845 52.7625 51.1113 52.8346 50.9305 52.8349H45.1402C44.9594 52.8346 44.7861 52.7625 44.6584 52.6346C44.5306 52.5067 44.4588 52.3334 44.4586 52.1526V47.0338ZM17.4781 58.9281H11.6878C9.788 58.9281 8.24194 60.4742 8.24194 62.3739V67.4934C8.24194 69.3932 9.788 70.9393 11.6878 70.9393H17.4781C19.3778 70.9393 20.9239 69.3932 20.9239 67.4934V62.3739C20.9238 60.4742 19.3777 58.9281 17.4781 58.9281ZM18.1596 67.4933C18.1595 67.674 18.0876 67.8473 17.9598 67.9751C17.8321 68.1028 17.6588 68.1747 17.4781 68.1748H11.6878C11.5071 68.1747 11.3338 68.1028 11.206 67.9751C11.0782 67.8473 11.0064 67.674 11.0062 67.4933V62.3738C11.0064 62.1931 11.0782 62.0198 11.206 61.892C11.3338 61.7642 11.5071 61.6924 11.6878 61.6922H17.4781C17.6588 61.6924 17.8321 61.7642 17.9598 61.892C18.0876 62.0198 18.1595 62.1931 18.1596 62.3738V67.4933ZM34.2042 58.9281H28.4139C26.5141 58.9281 24.9681 60.4742 24.9681 62.3739V67.4934C24.9681 69.3932 26.5141 70.9393 28.4139 70.9393H34.2042C36.104 70.9393 37.65 69.3932 37.65 67.4934V62.3739C37.65 60.4742 36.104 58.9281 34.2042 58.9281ZM34.8859 67.4933C34.8858 67.674 34.8139 67.8473 34.6861 67.9751C34.5583 68.1028 34.3851 68.1747 34.2044 68.1748H28.414C28.2333 68.1747 28.0601 68.1028 27.9323 67.9751C27.8045 67.8473 27.7326 67.674 27.7325 67.4933V62.3738C27.7326 62.1931 27.8045 62.0198 27.9323 61.892C28.0601 61.7642 28.2333 61.6924 28.414 61.6922H34.2044C34.3851 61.6924 34.5583 61.7642 34.6861 61.892C34.8139 62.0198 34.8858 62.1931 34.8859 62.3738V67.4933Z" fill="#869791"/>
<path d="M79.3446 53.416V13.7271C79.3446 9.17719 75.6437 5.47626 71.0945 5.47626H70.0097C69.3682 2.35524 66.5996 0 63.2912 0C59.9827 0 57.2141 2.35524 56.5726 5.4764H54.264C53.6226 2.35524 50.854 0 47.5455 0C44.2371 0 41.4679 2.35524 40.8264 5.4764H38.5178C37.8761 2.35524 35.1077 0 31.7992 0C28.4907 0 25.7221 2.35524 25.0806 5.4764H22.772C22.1305 2.35524 19.3619 0 16.0534 0C12.745 0 9.97635 2.35524 9.33487 5.4764H8.2501C3.70093 5.4764 0 9.17733 0 13.7272V70.9359C0 75.4851 3.70151 79.186 8.25083 79.186H52.5894C55.9313 84.7279 61.9921 88.4546 68.9222 88.4546C79.4419 88.4546 88.0004 79.8961 88.0004 69.3758C88.0004 62.7021 84.5492 56.8268 79.3446 53.416ZM63.2912 2.76426C65.0613 2.76426 66.5585 3.90072 67.1284 5.47655H59.454C60.0239 3.90072 61.5211 2.76426 63.2912 2.76426ZM47.5455 2.76426C49.3156 2.76426 50.8129 3.90072 51.3828 5.47655H43.7077C44.2776 3.90072 45.7747 2.76426 47.5455 2.76426ZM31.7992 2.76426C33.5693 2.76426 35.0666 3.90072 35.6365 5.47655H27.9621C28.5318 3.90072 30.029 2.76426 31.7992 2.76426ZM16.0534 2.76426C17.8235 2.76426 19.3208 3.90072 19.8907 5.47655H12.2162C12.7861 3.90072 14.2833 2.76426 16.0534 2.76426ZM2.76426 13.7272C2.76426 10.7019 5.2255 8.24067 8.2501 8.24067H9.33487C9.97635 11.3626 12.745 13.7178 16.0534 13.7178C16.8167 13.7178 17.4356 13.0982 17.4356 12.3357C17.4356 12.1541 17.3999 11.9744 17.3304 11.8067C17.261 11.639 17.1592 11.4866 17.0308 11.3583C16.9025 11.2299 16.7501 11.1281 16.5824 11.0587C16.4147 10.9892 16.235 10.9535 16.0534 10.9535C14.2833 10.9535 12.7861 9.81707 12.2162 8.24067H25.0806C25.7221 11.3626 28.4907 13.7178 31.7992 13.7178C32.5625 13.7178 33.1813 13.0982 33.1813 12.3357C33.1814 12.1541 33.1456 11.9744 33.0762 11.8067C33.0068 11.639 32.9049 11.4866 32.7766 11.3583C32.6483 11.2299 32.4959 11.1281 32.3282 11.0587C32.1605 10.9892 31.9807 10.9535 31.7992 10.9535C30.0291 10.9535 28.5318 9.81707 27.9619 8.24067H40.8264C41.4679 11.3626 44.2371 13.7178 47.5455 13.7178C48.3088 13.7178 48.9277 13.0982 48.9277 12.3357C48.9277 12.1541 48.892 11.9744 48.8225 11.8067C48.7531 11.639 48.6513 11.4866 48.5229 11.3583C48.3946 11.2299 48.2422 11.1281 48.0745 11.0587C47.9068 10.9892 47.7271 10.9535 47.5455 10.9535C45.7747 10.9535 44.2776 9.81707 43.7077 8.24067H56.5727C57.2142 11.3626 59.9828 13.7178 63.2913 13.7178C64.0546 13.7178 64.6734 13.0982 64.6734 12.3357C64.6735 12.1541 64.6377 11.9744 64.5683 11.8067C64.4989 11.639 64.3971 11.4866 64.2687 11.3583C64.1404 11.2299 63.988 11.1281 63.8203 11.0587C63.6526 10.9892 63.4728 10.9535 63.2913 10.9535C61.5212 10.9535 60.0239 9.81707 59.454 8.24067H71.0946C74.1194 8.24067 76.5805 10.7019 76.5805 13.7272V20.0047H2.76426V13.7272ZM51.1999 76.4218H8.25083C5.2255 76.4218 2.76426 73.9605 2.76426 70.9359V22.771H76.5805V51.8916C74.9191 51.1731 72.9674 50.6441 71.1033 50.4319V47.0347C71.1033 45.1364 69.5586 43.5923 67.6603 43.5923H61.864C59.9657 43.5923 58.4215 45.1363 58.4215 47.0347V52.1589C58.4215 52.5618 58.5105 52.9444 58.6409 53.3102C56.1621 54.9015 54.1873 56.9706 52.679 59.4109C52.1631 59.1025 51.5658 58.9216 50.9301 58.9216H45.1466C43.2407 58.9216 41.6906 60.4717 41.6906 62.3782V67.4875C41.6906 69.3939 43.2407 70.9441 45.1466 70.9441H49.9231C50.0781 72.8388 50.5562 74.8044 51.1999 76.4218ZM61.1857 51.9347V47.0346C61.1859 46.8548 61.2574 46.6824 61.3846 46.5553C61.5117 46.4281 61.6841 46.3566 61.8639 46.3564H67.6601C67.8401 46.3565 68.0126 46.4279 68.1399 46.5551C68.2672 46.6822 68.3388 46.8547 68.3391 47.0346V50.3043C65.9882 50.3766 63.2396 51.0297 61.1857 51.9347ZM51.3857 61.872C50.6262 63.6466 50.0182 65.9693 49.8858 68.1798H45.1463C44.7711 68.1798 44.4546 67.8625 44.4546 67.4874V62.3782C44.4546 62.003 44.7711 61.6857 45.1463 61.6857H50.9298C51.1003 61.6855 51.264 61.7522 51.386 61.8713C51.3862 61.872 51.3862 61.872 51.3857 61.872ZM68.9222 85.6903C57.9054 85.6903 51.7753 76.1893 52.7102 67.592C52.7156 67.5428 52.7268 67.4949 52.7324 67.4455C53.7029 59.2204 60.9645 52.5814 69.9152 53.1117C78.4451 53.6043 85.2361 60.7239 85.2361 69.3756C85.2361 78.3715 77.918 85.6903 68.9222 85.6903Z" fill="#019867"/>
<path d="M78.4377 64.0803C78.0666 63.4136 77.2243 63.174 76.5576 63.5446L70.3044 67.0248V60.31C70.2991 59.9469 70.1512 59.6005 69.8925 59.3456C69.6339 59.0907 69.2854 58.9478 68.9222 58.9478C68.5591 58.9478 68.2105 59.0907 67.9519 59.3456C67.6933 59.6005 67.5454 59.9469 67.5401 60.31V67.0248L61.2869 63.5446C60.6214 63.174 59.7786 63.4136 59.4067 64.0803C59.0356 64.7471 59.2758 65.5886 59.9425 65.9598L66.08 69.3752L59.9425 72.7913C59.6222 72.9696 59.3858 73.2678 59.2853 73.6204C59.1848 73.973 59.2285 74.3511 59.4067 74.6715C59.5852 74.9916 59.8835 75.2279 60.236 75.3282C60.5886 75.4286 60.9666 75.3848 61.2869 75.2067L67.5401 71.7264V78.4412C67.5454 78.8043 67.6933 79.1507 67.9519 79.4056C68.2105 79.6606 68.5591 79.8034 68.9222 79.8034C69.2854 79.8034 69.6339 79.6606 69.8925 79.4056C70.1512 79.1507 70.2991 78.8043 70.3044 78.4412V71.7264L76.5576 75.2067C76.8779 75.3848 77.2559 75.4286 77.6084 75.3282C77.961 75.2279 78.2593 74.9916 78.4377 74.6715C78.8088 74.004 78.5687 73.1624 77.9019 72.7913L71.7645 69.3752L77.9019 65.9598C78.5685 65.5886 78.8088 64.7471 78.4377 64.0803Z" fill="#869791"/>
</svg>
