<svg width="24" height="24" viewBox="0 0 24 24" fill="none" xmlns="http://www.w3.org/2000/svg">
<path d="M12 24C18.6274 24 24 18.6274 24 12C24 5.37258 18.6274 0 12 0C5.37258 0 0 5.37258 0 12C0 18.6274 5.37258 24 12 24Z" fill="#3D9635"/>
<path d="M3.52871 6.98624C3.48896 7.6065 3.43796 8.70375 3.90371 8.81475C4.46996 8.87325 4.15796 7.734 4.36196 7.527C4.40096 7.4265 4.47296 7.4265 4.47821 7.55325V8.52375C4.47033 8.6268 4.49815 8.72943 4.55702 8.81438C4.61589 8.89933 4.7022 8.96144 4.80146 8.99025C4.95146 8.979 5.04896 8.98425 5.10671 9.14925C5.13171 9.70575 5.15496 10.2622 5.17646 10.8187C5.17646 10.8187 5.52221 10.935 5.53871 9.8805C5.50417 9.46295 5.4934 9.04377 5.50646 8.625C5.50646 8.508 5.64146 8.4975 5.73746 8.56125C5.88746 8.67825 5.95196 8.82075 6.18146 8.763C6.53246 8.65125 6.74096 8.463 6.74696 8.1585C6.73832 7.8642 6.68522 7.57291 6.58946 7.2945C6.60446 7.24125 6.51971 7.10925 6.53771 7.056C6.59996 7.16775 6.69446 7.1565 6.71546 7.056C6.68139 6.85078 6.57496 6.66454 6.41546 6.531C6.29096 6.40875 6.10721 6.435 6.04046 6.69525C6.03346 7.02729 6.13453 7.35262 6.32846 7.62225C6.38827 7.77006 6.41267 7.92982 6.39971 8.08875C6.35309 8.11764 6.29702 8.12715 6.24348 8.11523C6.18994 8.10332 6.14318 8.07093 6.11321 8.025C6.11321 8.025 5.83121 7.7865 5.83121 7.73925C5.89948 7.49265 5.89137 7.23114 5.80796 6.98925C5.77685 6.84401 5.71439 6.70733 5.62496 6.58875C5.55596 6.49875 5.46146 6.49875 5.41646 6.58875C5.31724 6.9113 5.32514 7.2573 5.43896 7.575C5.50121 7.7865 5.60171 7.91925 5.55596 7.91925C5.51696 8.0415 5.43746 8.00925 5.38046 7.87125C5.31194 7.57423 5.27945 7.27004 5.28371 6.96525C5.25746 6.72675 5.22896 6.21525 5.09021 6.0855C5.00546 5.958 4.87796 6.02175 4.83296 6.144C4.82216 6.37355 4.82692 6.60358 4.84721 6.83249C4.93022 7.19912 4.98811 7.57098 5.02046 7.9455C5.03246 8.4705 4.75196 8.1705 4.76396 7.90875C4.82387 7.57711 4.82056 7.23715 4.75421 6.90674C4.70846 6.76949 4.65446 6.73725 4.54121 6.76425C4.45121 6.753 4.22396 7.03425 4.16021 7.50075C4.12685 7.65125 4.10181 7.80348 4.08521 7.95675C4.05221 8.19525 3.91196 8.36475 3.81371 7.91925C3.72671 7.596 3.67571 6.80099 3.53321 6.98624" fill="white"/>
<path d="M5.0698 9.53025C4.56955 9.8115 4.08355 10.0658 3.59155 10.3305C3.6746 10.0652 3.82673 9.82671 4.03233 9.63956C4.23793 9.45241 4.48961 9.32331 4.76155 9.2655C5.06155 9.276 4.98655 9.39825 5.0698 9.53025Z" fill="white"/>
<path d="M6.95474 6.02174C6.92211 6.02847 6.89038 6.03904 6.86024 6.05324C6.78373 6.0798 6.72042 6.13488 6.68353 6.20698C6.64664 6.27909 6.63901 6.36265 6.66224 6.44024C6.80474 7.41524 6.89549 8.15774 7.03724 9.12749C7.06199 9.24449 6.97499 9.39299 6.86624 9.38249C6.67949 9.23924 6.63299 8.94749 6.31499 8.96324C6.18071 8.99039 6.05814 9.05848 5.96412 9.15813C5.87011 9.25778 5.80928 9.38411 5.78999 9.51974C5.74718 9.72958 5.74718 9.9459 5.78999 10.1557C5.84656 10.2377 5.92985 10.2975 6.02561 10.3248C6.12137 10.3522 6.22366 10.3454 6.31499 10.3057C6.45449 10.242 6.57074 10.0807 6.62024 10.1205C6.65099 10.1842 6.61574 10.6927 5.96174 11.0797C5.55749 11.2807 5.23799 11.334 5.06174 10.9627C4.95674 10.7302 5.06999 9.84974 4.80824 10.0515C4.02974 12.309 6.62999 12.627 6.92174 10.1467C6.94049 10.0777 6.99674 10.0087 7.03949 10.0252C7.05899 10.0357 7.07249 10.062 7.07699 10.1152C7.01699 12.357 5.06624 12.5055 4.73549 11.8057C4.65532 11.5611 4.61579 11.3049 4.61849 11.0475C4.61819 10.9583 4.59043 10.8714 4.53899 10.7985C4.45949 10.7355 4.35374 10.9102 4.32974 11.2125C4.30588 11.3914 4.2981 11.5722 4.30649 11.7525C4.40999 13.5337 6.92249 12.7702 7.33274 11.3025C7.41363 10.8396 7.4363 10.3685 7.40024 9.89999H7.40849L7.41449 9.89474C7.66874 10.1947 8.01449 9.93149 8.09324 9.83099C8.10151 9.816 8.11322 9.8032 8.12741 9.79362C8.14161 9.78405 8.15787 9.77799 8.17486 9.77594C8.19186 9.77389 8.2091 9.77591 8.22516 9.78183C8.24122 9.78775 8.25564 9.7974 8.26724 9.80999C8.31624 9.84923 8.37415 9.87581 8.43585 9.88737C8.49755 9.89894 8.56115 9.89514 8.62103 9.87632C8.68092 9.85749 8.73525 9.82422 8.77923 9.77943C8.82322 9.73464 8.8555 9.67971 8.87324 9.61949C8.91737 9.34032 8.94566 9.05887 8.95799 8.77649C8.8594 8.79797 8.76688 8.84129 8.68724 8.90324C8.67667 8.91535 8.66966 8.93015 8.66699 8.94599C8.65724 9.02099 8.64674 9.10499 8.63474 9.18449C8.63334 9.19158 8.63159 9.19859 8.62949 9.20549C8.62353 9.21499 8.61493 9.22255 8.60474 9.22724C8.59272 9.23538 8.57876 9.24017 8.56427 9.24113C8.54979 9.24208 8.53532 9.23917 8.52234 9.23268C8.50936 9.22619 8.49834 9.21636 8.49041 9.2042C8.48248 9.19204 8.47794 9.17799 8.47724 9.16349C8.41799 8.86349 8.17049 8.81324 8.01974 9.29024C7.91624 9.38624 7.73474 9.40199 7.71449 9.26924C7.74074 8.94599 7.62374 8.90324 7.39424 9.05174C7.31924 8.41574 7.24424 7.81199 7.16924 7.17674C7.26674 7.17674 7.35224 7.25624 7.44149 7.13399C7.36088 6.75732 7.22383 6.39498 7.03499 6.05924C7.0294 6.05166 7.02339 6.0444 7.01699 6.03749C7.01538 6.03737 7.01384 6.03682 7.01252 6.03589C7.0112 6.03497 7.01016 6.03371 7.00949 6.03224H7.00049C6.99599 6.02699 6.98849 6.02699 6.98774 6.02174C6.97574 6.02174 6.96524 6.01649 6.95474 6.02174ZM6.25574 9.50399C6.28627 9.50113 6.31683 9.5091 6.34206 9.52652C6.3673 9.54394 6.38559 9.56968 6.39374 9.59924C6.40291 9.62771 6.40511 9.65797 6.40015 9.68747C6.39519 9.71696 6.38322 9.74484 6.36524 9.76874C6.34499 9.80624 6.27899 9.79049 6.22949 9.79049C6.20451 9.79283 6.17941 9.78748 6.15756 9.77514C6.1357 9.76281 6.11815 9.74409 6.10724 9.72149C6.08924 9.66299 6.13874 9.60449 6.16274 9.55724C6.18674 9.50999 6.16724 9.54674 6.17099 9.54149C6.19541 9.52169 6.22466 9.50874 6.25574 9.50399Z" fill="white"/>
<path d="M8.70591 5.9685C8.64447 5.9745 8.58482 5.9926 8.53041 6.02175C8.46734 6.08799 8.42776 6.1731 8.41773 6.26401C8.4077 6.35492 8.42779 6.44661 8.47491 6.525C8.57391 6.573 8.67291 6.69 8.60541 6.75C8.32791 7.0845 7.59966 7.65 7.56291 7.752V7.7625H7.56891C7.74847 7.79319 7.93178 7.79496 8.11191 7.76775V7.7625C8.43988 7.44905 8.74094 7.10861 9.01191 6.74475C8.97516 6.708 8.93691 6.681 8.90016 6.64425C8.8914 6.63722 8.88433 6.62832 8.87947 6.61819C8.87461 6.60807 8.87209 6.59698 8.87209 6.58575C8.87209 6.57452 8.87461 6.56343 8.87947 6.55331C8.88433 6.54318 8.8914 6.53428 8.90016 6.52725C8.97084 6.4634 9.01366 6.37436 9.01941 6.27928C9.02516 6.1842 8.99338 6.09066 8.93091 6.01875C8.86212 5.98134 8.78397 5.96466 8.70591 5.97075M8.67141 6.2625C8.71716 6.25725 8.77041 6.3105 8.79741 6.3735C8.82441 6.4365 8.81166 6.5115 8.76666 6.52725C8.72166 6.543 8.65941 6.4905 8.62941 6.4215C8.59941 6.3525 8.61591 6.27825 8.66316 6.26775C8.66316 6.26775 8.66316 6.2625 8.67141 6.2625ZM3.64341 11.1315C3.51847 11.3516 3.44063 11.5952 3.41481 11.847C3.38899 12.0988 3.41575 12.3531 3.49341 12.594C3.52742 12.6434 3.57587 12.6811 3.63212 12.7019C3.68837 12.7227 3.74968 12.7256 3.80766 12.7103C3.98091 12.6255 4.05891 12.228 4.01616 12.0855C3.95841 11.979 3.91266 11.9633 3.85341 12.0533C3.73266 12.3293 3.68091 12.138 3.66966 11.9783C3.65564 11.7163 3.66669 11.4536 3.70266 11.1938C3.73341 10.977 3.70266 11.04 3.64191 11.1308M15.5054 10.3365C15.2384 9.684 14.8664 9.04275 14.7487 8.799C14.6309 8.55525 13.7377 7.098 13.6057 6.9285C13.3147 6.5415 14.0767 7.09275 13.5089 6.31875C13.2944 6.11175 13.2839 6.10125 13.0987 5.93175C13.0117 5.85675 12.7874 5.73075 12.7514 5.94225C12.7309 6.09593 12.7373 6.25199 12.7702 6.4035C12.8266 6.54403 12.9024 6.67604 12.9952 6.79575C13.9503 8.21592 14.7809 9.716 15.4777 11.2793C15.6007 11.2163 15.5744 10.4475 15.5017 10.3365" fill="white"/>
<path d="M14.3293 12.5092C14.2746 12.573 14.4576 12.864 14.6968 12.8587C15.0936 12.8115 15.4468 12.5587 15.7678 11.8942C15.9015 11.6673 15.9851 11.4144 16.0131 11.1525C16.0531 9.89661 15.9634 8.63995 15.7453 7.40249C15.7314 7.3162 15.7348 7.22801 15.7551 7.14299C15.7806 7.10624 15.8683 7.14299 15.9141 7.05824C15.9838 6.97874 15.7348 6.33224 15.5931 6.08324C15.5428 5.97149 15.5248 5.89799 15.4431 6.09374C15.3417 6.31633 15.2939 6.55959 15.3036 6.80399C15.4933 8.27774 15.5511 9.57899 15.6786 11.049C15.6998 11.2004 15.6669 11.3545 15.5856 11.484C15.2485 11.9147 14.8206 12.2658 14.3323 12.5122M18.8863 14.6632C18.5991 14.8492 18.5991 15.066 18.8323 15.0712C19.0696 15.0769 19.3044 15.0208 19.5134 14.9084C19.7225 14.796 19.8987 14.6311 20.0248 14.43C20.1389 14.1691 20.2043 13.8895 20.2176 13.605C20.2715 12.2497 20.1991 10.8924 20.0016 9.55049C19.9762 9.4248 19.9629 9.29697 19.9618 9.16874C19.9888 9.09974 20.1171 9.17924 20.1606 9.09374C20.2311 9.01874 19.8283 8.43149 19.6843 8.18249C19.6363 8.07074 19.6183 7.99649 19.5343 8.19824C19.4396 8.42043 19.411 8.6652 19.4518 8.90324C19.665 10.4217 19.7982 11.9503 19.8508 13.4827C19.8407 13.6107 19.814 13.7367 19.7713 13.8577C19.6622 14.0439 19.5316 14.2166 19.3821 14.3722C19.2501 14.478 18.9741 14.5837 18.8848 14.6632" fill="white"/>
<path d="M19.9146 11.0625C19.9101 10.6875 19.9244 10.3627 19.9101 10.0815C19.8959 9.80024 19.7841 8.75099 19.7489 8.52899C19.7136 8.30699 19.6694 7.96199 19.6154 7.69124C19.5839 7.53415 19.5674 7.37444 19.5659 7.21424C19.5869 7.13924 19.6791 7.21949 19.7204 7.12949C19.6732 6.71657 19.5458 6.31684 19.3454 5.95274C19.2936 5.84174 19.1954 5.87774 19.0761 6.05924C18.9621 6.17549 19.0011 6.44024 19.0469 6.69524C19.359 8.35331 19.5107 10.0376 19.4999 11.7247C19.4834 11.8575 19.9191 11.3167 19.9146 11.0625ZM17.8079 8.98424C17.6271 8.97899 17.2506 8.59199 17.1411 8.36474C17.1082 8.25429 17.1156 8.13571 17.1621 8.03024C17.2289 7.98299 17.3316 7.92449 17.4074 7.98299C17.4074 7.98299 17.4869 8.10449 17.4719 8.12099C17.5694 8.17349 17.6121 8.14199 17.6219 8.09399C17.6279 8.01899 17.5911 7.97249 17.5911 7.88774C17.6324 7.64924 17.8716 7.61699 17.9661 7.76549C18.0306 7.8938 18.065 8.03514 18.0666 8.17874C18.0666 8.24774 17.9684 8.16824 17.9166 8.18399C17.8649 8.19974 17.8484 8.26949 17.8416 8.33399C17.8258 8.55094 17.8155 8.76826 17.8109 8.98574M14.4914 11.481C14.5424 10.9665 14.4749 9.92774 14.4704 9.62624C14.4539 8.91599 14.3481 7.54274 14.3009 7.31474C14.2439 6.88049 14.4576 7.36274 14.4269 7.10849C14.3327 6.70164 14.1512 6.3201 13.8951 5.99024C13.8156 5.86274 13.8201 5.83649 13.6926 6.02174C13.6115 6.30668 13.6173 6.60934 13.7091 6.89099C13.8806 7.72295 13.9924 8.5661 14.0436 9.41399C14.0978 10.307 14.1046 11.2023 14.0639 12.096C14.1996 12.096 14.4164 11.847 14.4914 11.481Z" fill="white"/>
<path d="M20.5275 10.6598C20.2132 10.0598 19.7332 9.36075 19.6065 9.12225C19.4797 8.88375 18.3967 7.10325 18.2617 6.94725C17.8657 6.486 18.4432 6.87225 18.1867 6.507C18.0488 6.32174 17.8919 6.15133 17.7187 5.9985C17.6265 5.93475 17.5687 5.802 17.5387 6.0195C17.5224 6.21329 17.5176 6.40789 17.5245 6.60225C17.5453 6.73398 17.5995 6.85818 17.682 6.963C18.7513 8.43024 19.7011 9.98098 20.5222 11.6003C20.6422 11.5373 20.601 10.7685 20.5267 10.6628M16.6927 16.3365C16.637 16.3533 16.5871 16.3854 16.5487 16.4292C16.5103 16.473 16.485 16.5267 16.4757 16.5842C16.4664 16.6417 16.4734 16.7006 16.496 16.7543C16.5186 16.808 16.5559 16.8542 16.6035 16.8878C13.6447 16.8878 9.1035 16.8345 8.13375 16.8345C7.587 16.8345 5.86575 16.7595 5.8335 16.7595C6.00464 17.0206 6.24553 17.2284 6.52882 17.3595C6.81211 17.4906 7.12647 17.5397 7.43625 17.5013C8.75175 17.5013 14.838 17.4855 16.5682 17.4855C16.5245 17.6034 16.5115 17.7305 16.5307 17.8549C16.5499 17.9792 16.6005 18.0965 16.6777 18.1958L16.6845 18.201C16.6854 18.2029 16.687 18.2044 16.6889 18.2054C16.6908 18.2063 16.6929 18.2066 16.695 18.2063H16.7002C16.8157 18.2385 16.866 18.1425 16.9065 18.0795C17.3487 18.1042 17.792 18.1025 18.234 18.0743C18.2992 18.18 18.3652 18.2805 18.4875 18.2648C18.7035 18.2115 18.873 18.1853 18.8805 17.6925C18.8805 17.6925 18.858 16.8548 18.3675 16.908C18.2512 16.9238 17.9265 16.9613 17.9265 16.9613C17.5515 16.9133 17.2717 16.908 16.8487 16.8863C16.8885 16.833 16.956 16.605 16.872 16.5255C16.8581 16.5138 16.8419 16.505 16.8245 16.4996C16.8072 16.4942 16.7889 16.4923 16.7707 16.494H16.7625C16.7625 16.494 16.7557 16.4888 16.7535 16.4835V16.4783C16.7342 16.4318 16.7184 16.3839 16.7062 16.335H16.6965M16.8975 17.535C17.3265 17.556 17.7315 17.5403 18.165 17.5613C18.1914 17.597 18.2047 17.6407 18.2026 17.6851C18.2006 17.7295 18.1833 17.7718 18.1537 17.805C18.1537 17.8103 18.1477 17.8103 18.1477 17.8103H18.1357C17.9955 17.805 17.9152 17.805 17.775 17.7998C17.775 17.7893 17.7705 17.784 17.7705 17.7735C17.736 17.6618 17.4975 17.673 17.439 17.763V17.7893C17.4376 17.7944 17.4376 17.7999 17.439 17.805C17.255 17.8167 17.0703 17.8097 16.8877 17.784C16.8345 17.709 16.8405 17.5718 16.9057 17.535M9.20775 6.47775C8.9205 7.3995 9.37425 8.41725 9.68775 8.322C9.91275 8.4225 10.0575 7.935 10.152 7.40475C10.2165 7.25475 10.2637 7.2405 10.2967 7.31475C10.287 8.025 10.341 8.184 10.503 8.39625C10.5464 8.4429 10.5989 8.48029 10.6571 8.50617C10.7154 8.53205 10.7783 8.5459 10.842 8.54688C10.9057 8.54786 10.969 8.53596 11.0281 8.51188C11.0871 8.4878 11.1406 8.45204 11.1855 8.40675C11.2087 8.38575 11.4667 8.094 11.4667 8.094C11.4804 8.07627 11.4978 8.06174 11.5176 8.05142C11.5375 8.04109 11.5593 8.03523 11.5817 8.03423C11.604 8.03323 11.6263 8.03712 11.647 8.04563C11.6677 8.05414 11.6863 8.06706 11.7015 8.0835C11.7847 8.16825 11.7765 8.322 11.958 8.4225C12.0539 8.45995 12.1589 8.46738 12.259 8.44381C12.3592 8.42023 12.4499 8.36677 12.519 8.2905C12.6225 8.094 12.645 8.025 12.6922 7.95075C12.7672 7.83975 12.8917 7.88775 12.8917 7.9245C12.8805 7.98825 12.81 8.04675 12.8557 8.15775C12.9457 8.23275 12.966 8.184 13.0185 8.16825C13.2015 8.06775 13.3395 7.62225 13.3395 7.62225C13.3455 7.45275 13.2645 7.4685 13.2075 7.506C13.1392 7.55325 13.1325 7.56975 13.0635 7.617C12.975 7.6275 12.801 7.6965 12.717 7.548C12.6277 7.368 12.6277 7.11375 12.5587 6.93375C12.5587 6.92325 12.444 6.6525 12.552 6.63375C12.6052 6.64425 12.7207 6.681 12.7402 6.57C12.7987 6.46425 12.618 6.15675 12.4957 6.00825C12.4739 5.97627 12.4449 5.94985 12.411 5.93109C12.3771 5.91234 12.3393 5.90177 12.3006 5.90024C12.2619 5.89871 12.2234 5.90626 12.1881 5.92228C12.1528 5.9383 12.1218 5.96235 12.0975 5.9925C12.0264 6.0871 11.989 6.2027 11.991 6.321C11.9751 6.39781 11.9754 6.47707 11.9918 6.55377C12.0082 6.63046 12.0403 6.70291 12.0862 6.7665C12.2571 7.03627 12.3361 7.35413 12.3112 7.6725C12.2822 7.72445 12.2398 7.76761 12.1883 7.79745C12.1368 7.82728 12.0782 7.84267 12.0187 7.842C11.9437 7.821 11.8162 7.7835 11.7487 7.23225C11.7647 6.79815 11.7156 6.3641 11.6032 5.9445C11.5455 5.775 11.505 5.61075 11.3647 5.9025C11.3037 5.99432 11.2644 6.09893 11.2501 6.20828C11.2358 6.31764 11.2468 6.42881 11.2822 6.53325C11.3901 6.84813 11.4209 7.18425 11.3722 7.5135C11.3245 7.60837 11.2682 7.69873 11.2042 7.7835C11.1637 7.83661 11.1041 7.87186 11.038 7.8818C10.972 7.89174 10.9046 7.87558 10.8502 7.83675C10.7896 7.80251 10.7382 7.7539 10.7007 7.69519C10.6632 7.63648 10.6406 7.56946 10.635 7.5C10.66 7.13749 10.6481 6.77338 10.5997 6.41325C10.5142 6.2115 10.3695 6.28575 10.3095 6.34425C10.028 6.69884 9.84459 7.1212 9.77775 7.569C9.69525 7.86525 9.6075 7.7805 9.54675 7.659C9.39675 7.50525 9.38775 6.27525 9.20775 6.477" fill="white"/>
<path d="M10.1797 8.391C10.1797 8.39625 10.1759 8.39625 10.1714 8.39625V8.40149C10.1527 8.41199 10.1279 8.44949 10.0784 8.49149C10.0365 8.54782 10.0066 8.61218 9.99057 8.68056C9.97457 8.74895 9.97283 8.8199 9.98545 8.889C9.9892 8.916 10.1429 9.39825 10.2764 9.7425C10.3883 10.1151 10.426 10.5059 10.3874 10.893C10.173 11.3903 9.81361 11.8113 9.3562 12.1012C9.28946 12.135 9.21573 12.1526 9.14095 12.1526C9.06617 12.1526 8.99243 12.135 8.9257 12.1012V12.096C8.8844 12.0637 8.85205 12.0214 8.8317 11.9731C8.81136 11.9248 8.8037 11.8721 8.80945 11.82C9.27038 11.5362 9.63258 11.1171 9.8467 10.62C9.94783 10.3402 9.95755 10.0356 9.87445 9.75C9.84849 9.60526 9.78804 9.46891 9.6982 9.3525C9.6982 9.3525 9.6982 9.3525 9.6982 9.34725C9.75595 9.31575 9.9052 9.4425 9.92995 9.363C9.88657 9.13491 9.78299 8.92258 9.62995 8.74799C9.61008 8.71882 9.58386 8.69453 9.55327 8.67692C9.52268 8.65932 9.4885 8.64886 9.4533 8.64634C9.41809 8.64381 9.38277 8.64928 9.34998 8.66234C9.31719 8.6754 9.28778 8.69571 9.26395 8.72175C9.1402 8.80124 9.11395 9.0825 9.1717 9.3315C9.2392 9.5115 9.42145 9.54375 9.5512 9.91425V9.9195C9.57593 10.0484 9.5682 10.1814 9.5287 10.3065C9.30859 10.6128 9.04739 10.8874 8.75245 11.1225L8.7472 11.1277V11.1337H8.73895V11.1277C8.74183 11.0873 8.74183 11.0467 8.73895 11.0062C8.73895 10.9005 8.7772 10.6455 8.7742 10.5982V10.593C8.55295 10.7572 8.4742 11.2552 8.43595 11.4037C7.8721 11.7552 7.34452 12.1616 6.86095 12.6172C6.66745 12.9517 8.1892 12.225 8.36095 12.1402C8.36095 12.1402 8.36545 12.1402 8.3677 12.1455C8.39987 12.2549 8.44547 12.36 8.50345 12.4582C8.59227 12.5871 8.71893 12.6852 8.86592 12.7389C9.01291 12.7927 9.17296 12.7994 9.32395 12.7582C9.82359 12.5165 10.2377 12.1283 10.5112 11.6452C10.5562 11.5702 10.6289 11.5125 10.6942 11.5702C10.8515 11.878 11.093 12.1346 11.3905 12.3103C11.6881 12.486 12.0295 12.5735 12.3749 12.5625C12.5647 12.3022 12.4754 12.1702 12.3974 12.1222C12.3727 12.1012 11.9872 11.9317 11.9287 11.7622C11.8919 11.6085 11.9812 11.4705 12.1664 11.364C12.6943 11.3092 13.2145 11.1973 13.7182 11.0302C13.7363 10.8212 13.7941 10.6176 13.8884 10.4302C13.908 10.3877 13.9382 10.351 13.9762 10.3237C13.9762 10.3237 13.9762 10.3237 13.9762 10.3185V10.3132C13.9768 10.3098 13.9768 10.3062 13.9762 10.3027L13.8884 10.2442L12.2024 10.2337C12.1856 10.2271 12.1697 10.2183 12.1552 10.2075V10.176C12.1684 10.1581 12.1871 10.1449 12.2084 10.1385C12.6134 10.08 13.3274 9.948 13.3739 9.16875C13.3863 9.08097 13.3805 8.99159 13.3569 8.90614C13.3334 8.82068 13.2925 8.74097 13.2369 8.67194C13.1813 8.60291 13.1121 8.54602 13.0337 8.50479C12.9552 8.46356 12.8691 8.43887 12.7807 8.43225C12.6119 8.46845 12.4637 8.56872 12.3673 8.71196C12.271 8.8552 12.2339 9.03024 12.2639 9.20025C12.2497 9.3015 12.2969 9.50775 12.2024 9.52875C11.5814 9.59775 10.9049 10.0327 10.8802 10.3455H10.8719L10.8674 10.3507H10.8592L10.8517 10.3455C10.82 10.3259 10.795 10.2971 10.7803 10.2629C10.7655 10.2287 10.7617 10.1907 10.7692 10.1542C10.7408 9.59002 10.5955 9.03786 10.3424 8.53275C10.2569 8.43225 10.2179 8.39475 10.1924 8.3895H10.1819M12.6472 9.084C12.6943 9.07915 12.7414 9.09228 12.7792 9.12075C12.8089 9.13577 12.8342 9.1584 12.8523 9.18632C12.8705 9.21424 12.881 9.24647 12.8827 9.27975V9.29999L12.8722 9.31049C12.8392 9.34724 12.7672 9.342 12.6952 9.294C12.6675 9.27877 12.6437 9.25729 12.6257 9.23125C12.6077 9.2052 12.5961 9.17533 12.5917 9.144V9.138C12.5917 9.1275 12.5962 9.12225 12.5992 9.12225L12.6037 9.11175C12.6037 9.1065 12.6037 9.1065 12.6119 9.10125C12.6171 9.09602 12.6233 9.09192 12.6302 9.08921C12.637 9.08649 12.6443 9.08523 12.6517 9.0855M11.0834 10.686H11.0999C11.3323 10.7353 11.5684 10.7654 11.8057 10.776C12.0014 10.7917 12.0982 10.9612 11.9152 11.0355C11.7322 11.1097 11.5604 11.1577 11.5604 11.4547C11.5852 11.5377 11.5852 11.6261 11.5604 11.709C11.5604 11.7142 11.5559 11.7195 11.5529 11.7195V11.73H11.5477L11.5394 11.7352C11.539 11.7367 11.5381 11.738 11.5369 11.7389C11.5357 11.7399 11.5342 11.7404 11.5327 11.7405C11.4877 11.7457 11.4254 11.6932 11.3774 11.6715C11.2483 11.5827 11.1398 11.4673 11.059 11.333C10.9783 11.1987 10.9273 11.0487 10.9094 10.893C10.9072 10.8678 10.91 10.8425 10.9176 10.8184C10.9252 10.7943 10.9376 10.772 10.9539 10.7528C10.9702 10.7335 10.9902 10.7177 11.0127 10.7062C11.0352 10.6948 11.0598 10.6879 11.0849 10.686M5.65495 6.48825C5.8507 6.58875 6.21445 6.54675 6.19945 6.1965C6.19793 6.14169 6.19518 6.08693 6.1912 6.03225C6.15295 5.9265 6.0412 5.9475 6.0187 6.05925C6.01045 6.09075 6.0307 6.14925 6.0037 6.17025C5.9767 6.19125 5.92495 6.1755 5.9287 6.08025C5.92679 6.04951 5.91583 6.02002 5.8972 5.9955C5.89137 5.98899 5.88395 5.98412 5.87566 5.98135C5.86738 5.97859 5.85851 5.97804 5.84995 5.97975C5.8237 5.985 5.8237 5.99025 5.8117 6.0165C5.80239 6.042 5.79732 6.06885 5.7967 6.096C5.7922 6.13275 5.7787 6.144 5.7562 6.14925C5.7337 6.1545 5.73895 6.1545 5.71645 6.13875C5.70595 6.12225 5.68795 6.117 5.68795 6.09075C5.68746 6.06228 5.68445 6.03392 5.67895 6.006C5.66678 5.99022 5.64958 5.97911 5.6302 5.9745C5.52295 5.9745 5.5162 6.11175 5.52295 6.165C5.51395 6.1755 5.51095 6.41925 5.65495 6.48825Z" fill="white"/>
<path d="M11.3527 9.20175C11.547 9.303 12.009 9.2445 11.898 8.90175C11.8967 8.84683 11.8927 8.79201 11.886 8.7375C11.8477 8.63175 11.7405 8.658 11.7142 8.7645C11.7082 8.80125 11.7292 8.85975 11.7015 8.88075C11.6737 8.90175 11.622 8.88075 11.6265 8.7855C11.6245 8.75637 11.6135 8.72858 11.595 8.706C11.5893 8.70012 11.5824 8.69564 11.5747 8.6929C11.567 8.69017 11.5588 8.68926 11.5507 8.69025C11.5252 8.6955 11.5252 8.70075 11.5102 8.727C11.502 8.75276 11.4972 8.77949 11.496 8.8065C11.496 8.844 11.4802 8.8545 11.457 8.85975C11.4337 8.865 11.4405 8.865 11.418 8.84925C11.3955 8.8335 11.3895 8.82825 11.3895 8.80125C11.3905 8.77246 11.3861 8.74373 11.3767 8.7165C11.3657 8.70021 11.3487 8.6889 11.3295 8.685C11.2245 8.685 11.2185 8.82225 11.2222 8.8755C11.2162 8.88075 11.2117 9.1245 11.3557 9.19875M14.6752 8.07825C14.8687 8.17875 15.234 8.1315 15.219 7.77825C15.219 7.752 15.213 7.64625 15.2107 7.614C15.1695 7.5135 15.0607 7.5345 15.0382 7.64625C15.0292 7.67775 15.0495 7.73625 15.021 7.752C15.0067 7.773 14.946 7.7625 14.946 7.662C14.9422 7.63169 14.9314 7.60267 14.9145 7.57725C14.9009 7.57195 14.8862 7.57014 14.8717 7.572C14.8462 7.572 14.8462 7.57725 14.8305 7.6035C14.8218 7.63097 14.8167 7.65947 14.8155 7.68825C14.8155 7.7205 14.8012 7.731 14.7765 7.73625C14.7517 7.7415 14.7562 7.7415 14.739 7.72575C14.7306 7.72071 14.7237 7.71369 14.7187 7.70532C14.7137 7.69695 14.7109 7.68748 14.7105 7.67775C14.7095 7.64737 14.7053 7.61719 14.6977 7.58775C14.6837 7.57738 14.6676 7.57021 14.6505 7.56675C14.5447 7.56675 14.5357 7.704 14.5432 7.752C14.5357 7.7625 14.5312 8.00625 14.676 8.07525M16.395 10.893C16.2787 11.0856 16.2081 11.3023 16.1884 11.5264C16.1688 11.7505 16.2007 11.9761 16.2817 12.186C16.3542 12.408 16.5023 12.5975 16.7002 12.7215C16.7294 12.7533 16.7657 12.7776 16.8062 12.7925C16.8466 12.8074 16.8901 12.8125 16.9329 12.8073C16.9757 12.8021 17.0167 12.7868 17.0524 12.7626C17.0881 12.7384 17.1175 12.7061 17.1382 12.6683C17.3362 12.435 17.3415 11.847 17.433 11.73C17.5005 11.5125 17.6632 11.55 17.7427 11.6453C17.8149 11.758 17.9122 11.8524 18.027 11.9213C18.0646 11.9659 18.1108 12.0026 18.1628 12.0292C18.2148 12.0558 18.2716 12.0717 18.3298 12.0761C18.388 12.0805 18.4466 12.0733 18.502 12.0548C18.5574 12.0363 18.6085 12.007 18.6525 11.9685C18.8173 11.8641 18.9365 11.7012 18.9862 11.5125C19.0588 10.6205 19.0671 9.72444 19.011 8.83125C19.0012 8.7675 18.819 7.72875 18.819 7.7175C18.819 7.70625 18.7927 7.188 18.774 7.06575C18.7695 7.01325 18.759 6.99675 18.8062 7.00275C18.8557 7.05525 18.8602 7.0605 18.8917 7.071C18.9412 7.08225 18.9862 6.98625 18.957 6.89625C18.807 6.57825 18.6472 6.255 18.4927 5.94225C18.4575 5.895 18.408 5.85225 18.3472 5.9475C18.3105 5.98548 18.2817 6.03034 18.2623 6.07951C18.243 6.12868 18.2337 6.18119 18.2347 6.234C18.249 6.459 18.2842 6.69525 18.297 6.92325C18.3592 7.3095 18.4207 7.70175 18.483 8.094C18.5407 8.9265 18.558 9.68925 18.615 10.5218C18.6283 10.8226 18.5591 11.1214 18.4147 11.3858C18.4147 11.3858 18.279 11.481 18.1852 11.3805C18.0552 11.2224 17.9412 11.0518 17.8447 10.8713C17.7052 10.7288 17.6122 10.7655 17.5132 10.8713C17.2685 11.255 17.0737 11.6683 16.9335 12.1013C16.884 12.186 16.7497 12.2603 16.6012 12.096C16.4051 11.7286 16.3327 11.3078 16.395 10.896M14.763 6.03225C14.8579 6.11352 14.931 6.21721 14.9757 6.33391C15.0203 6.45061 15.0351 6.57663 15.0187 6.7005C14.9835 6.939 14.8927 7.20375 14.8252 7.167C14.7577 7.13025 14.8732 6.9285 14.8065 6.711C14.7652 6.56775 14.5297 6.3135 14.5545 6.234C14.5444 6.20519 14.5428 6.1741 14.5498 6.1444C14.5568 6.11469 14.5722 6.08763 14.5942 6.0664C14.6161 6.04518 14.6437 6.03068 14.6736 6.02463C14.7035 6.01858 14.7345 6.02122 14.763 6.03225Z" fill="white"/>
<path d="M16.9559 11.1315C16.9718 10.7811 16.9595 10.4299 16.9191 10.0815C16.9086 9.80625 16.6401 7.5315 16.5831 7.32C16.5171 6.92325 16.8464 7.2675 16.8081 7.03425C16.6956 6.7425 16.4129 6.3135 16.3251 6.05925C16.2689 5.9475 16.2921 5.85225 16.1751 6.03225C16.0725 6.35386 16.036 6.69292 16.0679 7.029C16.4042 8.60436 16.583 10.2093 16.6019 11.82C16.7361 11.82 16.8914 11.4757 16.9589 11.1315M19.1114 8.75925C19.2741 8.8545 19.3656 9.34725 19.3484 9.4905C19.3176 9.75 19.2336 10.0312 19.1729 9.99375C19.1121 9.95625 19.1856 9.6075 19.1541 9.501C19.1159 9.34725 18.9021 9.06675 18.9239 8.982C18.8804 8.8065 19.0184 8.733 19.1114 8.757M8.13435 10.23C8.28435 10.2937 8.37435 10.6597 8.35935 10.7655C8.3286 10.956 8.24835 11.1577 8.19135 11.1405C8.13435 11.1232 8.20485 10.854 8.1726 10.7745C8.16135 10.5787 7.9476 10.4745 7.9551 10.3927C7.9146 10.239 8.0406 10.2127 8.1366 10.2337M4.07535 5.91075C4.30035 5.98575 4.31235 6.3555 4.30035 6.46725C4.2696 6.663 4.18935 6.87525 4.13085 6.849C4.07235 6.82275 4.13085 6.55725 4.09935 6.474C4.0671 6.35175 3.87435 6.1455 3.89985 6.08175C3.85635 5.949 3.9846 5.88525 4.0776 5.91225M8.4996 7.65975C8.41153 7.72901 8.35027 7.82674 8.32633 7.9362C8.30238 8.04566 8.31724 8.16004 8.36835 8.25975C8.39793 8.30389 8.44112 8.33716 8.49135 8.35449C8.54158 8.37182 8.5961 8.37226 8.6466 8.35575C8.81535 8.382 8.9151 8.00025 8.9151 8.00025C8.9151 8.00025 8.92035 7.8945 8.72235 8.0955C8.63685 8.11725 8.62635 8.07975 8.6046 8.0265C8.58463 7.92734 8.59348 7.82454 8.6301 7.73025C8.66085 7.63425 8.59635 7.59225 8.4996 7.66125M9.78735 5.7675C9.71231 5.82848 9.65041 5.90406 9.60542 5.98966C9.56043 6.07526 9.53328 6.1691 9.5256 6.2655C9.51885 6.393 9.4971 6.393 9.57285 6.47775C9.6291 6.56775 9.6846 6.55725 9.7941 6.48825C9.82225 6.46852 9.84617 6.44336 9.86446 6.41425C9.88275 6.38514 9.89504 6.35267 9.9006 6.31875C9.9276 6.16875 9.7626 6.38775 9.7401 6.2235C9.70485 6.06975 9.80985 6.01125 9.9111 5.8575C9.9111 5.757 9.9111 5.688 9.78735 5.7675ZM10.8276 5.9745C10.7863 6.16453 10.7612 6.35773 10.7526 6.552C10.7219 6.69525 10.8884 6.75825 10.9611 6.573C11.0361 6.37101 11.0759 6.15768 11.0789 5.94225C11.0459 5.72475 10.9139 5.736 10.8276 5.9745ZM17.3751 9.7215C17.3991 9.69975 18.2976 8.979 18.2976 8.979C18.3899 8.94225 18.3726 9.354 18.3284 9.345C18.0559 9.64771 17.7334 9.90139 17.3751 10.095C17.3316 10.1272 17.2866 9.8145 17.3751 9.7245M18.1964 9.71625C18.3569 9.80625 18.4214 10.3252 18.4019 10.4662C18.4079 10.7422 18.2519 10.9642 18.1874 10.9327C18.1229 10.9012 18.1941 10.5885 18.1634 10.4767C18.0938 10.3079 18.0435 10.1318 18.0134 9.95175C17.9684 9.77625 18.0989 9.681 18.1956 9.71325M12.8421 11.9632C12.916 11.8694 13.002 11.7856 13.0979 11.7142C13.1267 11.6997 13.1597 11.6955 13.1913 11.7022C13.2229 11.7088 13.2513 11.7261 13.2719 11.751C13.2876 11.847 13.2164 11.9422 13.2389 12.0742C13.2569 12.1275 13.2719 12.1912 13.3589 12.165C13.4156 12.1148 13.482 12.0767 13.5539 12.053C13.6259 12.0293 13.7019 12.0204 13.7774 12.027C13.8899 12.027 13.8906 12.2385 13.8239 12.2385C13.6259 12.293 13.4343 12.3684 13.2524 12.4635C13.2268 12.4818 13.1951 12.4894 13.1641 12.4845C13.133 12.4795 13.1052 12.4626 13.0866 12.4372C13.0692 12.4099 13.0587 12.3788 13.0559 12.3466C13.0532 12.3143 13.0583 12.2819 13.0709 12.252C13.0784 12.1455 13.0401 12.0877 12.9599 12.093C12.8999 12.135 12.8481 12.156 12.8181 12.0825C12.8076 12.024 12.8031 11.9925 12.8421 11.9602M19.1444 12.2445C19.1699 12.2707 19.1842 12.3058 19.1842 12.3424C19.1842 12.3789 19.1699 12.4141 19.1444 12.4402C19.0799 12.5092 19.0371 12.5407 18.9726 12.6097C18.9441 12.6682 18.9254 12.753 19.0154 12.7792C19.1826 12.8325 19.5726 12.5542 19.5726 12.5407C19.5935 12.5218 19.6081 12.497 19.6147 12.4695C19.6213 12.4421 19.6194 12.4134 19.6094 12.387C19.5726 12.3397 19.4909 12.366 19.4361 12.366C19.4076 12.366 19.3214 12.345 19.3611 12.2655C19.3899 12.2182 19.4136 12.1679 19.4316 12.1155C19.4564 12.0465 19.4369 12.0045 19.3386 11.9655C19.2591 11.9524 19.1781 11.9524 19.0986 11.9655C19.0409 11.9812 19.0236 12.0135 19.0101 12.0877C19.0139 12.204 19.0784 12.1987 19.1459 12.2467" fill="white"/>
</svg>
