<svg width="37" height="48" viewBox="0 0 37 48" fill="none" xmlns="http://www.w3.org/2000/svg">
<path d="M25.674 0.418823H1.23211C0.55163 0.418823 0 0.970453 0 2.04087V46.7389C0 47.0295 0.55163 47.5811 1.23211 47.5811H34.9818C35.6623 47.5811 36.2139 47.0295 36.2139 46.7389V11.3487C36.2139 10.7625 36.1356 10.5739 35.9975 10.4349L26.1978 0.635264C26.0586 0.496872 25.8703 0.419081 25.674 0.418823Z" fill="#E9E9E0"/>
<path d="M26.1074 0.546021V10.5251H36.0865L26.1074 0.546021Z" fill="#D9D7CA"/>
<path d="M10.9602 28.4839C10.6671 28.4839 10.3858 28.3888 10.1458 28.2094C9.26907 27.5516 9.15117 26.8198 9.20675 26.3212C9.36003 24.9501 11.0553 23.5151 14.2472 22.053C15.5139 19.2772 16.719 15.8571 17.4374 12.9995C16.5969 11.1703 15.78 8.79705 16.3754 7.40492C16.5843 6.9173 16.8445 6.54337 17.3305 6.38167C17.6098 6.30351 17.8966 6.25496 18.1861 6.23682C18.6106 6.23682 18.9837 6.78339 19.2481 7.12027C19.4965 7.43693 20.06 8.10815 18.934 12.8488C20.0692 15.1934 21.6778 17.5819 23.219 19.2174C24.3231 19.0178 25.2731 18.9159 26.0471 18.9159C27.3659 18.9159 28.1651 19.2233 28.4911 19.8566C28.7606 20.3804 28.6502 20.9927 28.1626 21.6757C27.6935 22.3318 27.0467 22.6788 26.293 22.6788C25.2689 22.6788 24.0763 22.032 22.7465 20.7544C20.3573 21.2538 17.5671 22.1448 15.3117 23.131C14.6077 24.625 13.9331 25.8285 13.3048 26.7111C12.4416 27.9197 11.6971 28.4839 10.9602 28.4839ZM13.2021 24.1669C11.4023 25.1784 10.6688 26.0096 10.6157 26.4779C10.6073 26.5553 10.5846 26.7591 10.9787 27.0606C11.1042 27.0211 11.8369 26.6867 13.2021 24.1669ZM24.6869 20.4259C25.3733 20.954 25.5409 21.2209 25.9898 21.2209C26.1869 21.2209 26.7486 21.2125 27.0088 20.8495C27.1343 20.6735 27.1832 20.5607 27.2025 20.5C27.0989 20.4453 26.9617 20.3341 26.213 20.3341C25.7877 20.335 25.2529 20.3535 24.6869 20.4259ZM18.3958 14.8827C17.7653 17.0467 17.0135 19.1735 16.1438 21.2529C17.9267 20.5623 19.7545 19.9939 21.6146 19.5517C20.4777 18.2312 19.3416 16.5822 18.3958 14.8827ZM17.8846 7.75612C17.8021 7.78391 16.7645 9.23583 17.9655 10.4646C18.7647 8.68336 17.9208 7.74432 17.8846 7.75612ZM34.9818 47.5813H1.23211C0.905337 47.5813 0.591944 47.4515 0.360878 47.2204C0.129812 46.9893 0 46.6759 0 46.3492V33.2642H36.2139V46.3492C36.2139 47.0297 35.6623 47.5813 34.9818 47.5813Z" fill="#CC4B4C"/>
<path d="M9.16718 45.0547H7.78516V36.5688H10.2258C10.5863 36.5688 10.9433 36.6261 11.2962 36.7415C11.6491 36.8569 11.9658 37.0295 12.2462 37.2594C12.5266 37.4894 12.7532 37.7681 12.9258 38.094C13.0985 38.42 13.1852 38.7863 13.1852 39.1939C13.1852 39.6243 13.112 40.0134 12.9663 40.3629C12.8305 40.6981 12.6219 40.999 12.3557 41.2438C12.0946 41.4813 11.7796 41.6657 11.4116 41.7963C11.0436 41.9268 10.6359 41.9917 10.1913 41.9917H9.16634L9.16718 45.0547ZM9.16718 37.6165V40.9785H10.4338C10.6023 40.9785 10.769 40.9499 10.9349 40.8918C11.1 40.8345 11.2516 40.7402 11.3897 40.6096C11.5278 40.4791 11.639 40.2972 11.7232 40.0631C11.8074 39.8289 11.8495 39.5392 11.8495 39.1939C11.8495 39.0558 11.8302 38.8958 11.7923 38.7164C11.7505 38.5292 11.6702 38.3528 11.5565 38.1985C11.4244 38.0228 11.2527 37.8809 11.0554 37.7841C10.8406 37.673 10.5559 37.6174 10.2031 37.6174L9.16718 37.6165ZM21.6601 40.576C21.6601 41.2741 21.5852 41.8712 21.4353 42.3664C21.2854 42.8616 21.0959 43.276 20.8651 43.6103C20.6343 43.9447 20.3758 44.2075 20.0878 44.3995C19.7997 44.5915 19.5218 44.7347 19.2532 44.8315C19.0151 44.9199 18.7679 44.9818 18.5163 45.0159C18.2939 45.0412 18.1289 45.0547 18.0211 45.0547H14.809V36.5688H17.365C18.0792 36.5688 18.7066 36.6825 19.2473 36.9082C19.788 37.134 20.2377 37.4363 20.5948 37.8119C20.9519 38.1875 21.218 38.6162 21.3948 39.0954C21.5717 39.5754 21.6601 40.069 21.6601 40.576ZM17.5612 44.0415C18.4977 44.0415 19.1732 43.7426 19.5875 43.1438C20.0019 42.545 20.209 41.6775 20.209 40.5414C20.209 40.1886 20.1669 39.839 20.0827 39.4938C19.9977 39.1485 19.8351 38.836 19.5934 38.5556C19.3517 38.2751 19.0233 38.0486 18.6089 37.8759C18.1945 37.7033 17.6572 37.6165 16.997 37.6165H16.191V44.0415H17.5612ZM25.0684 37.6165V40.2879H28.6149V41.232H25.0684V45.0547H23.6637V36.5688H28.9711V37.6165H25.0684Z" fill="white"/>
</svg>
